<svg width="34" height="32" viewBox="0 0 34 32" fill="none" xmlns="http://www.w3.org/2000/svg">
<ellipse cx="20.5293" cy="15.8201" rx="12.7203" ry="11.5639" fill="#C3F3EC"/>
<path d="M24.4695 21.7508C22.6341 24.4674 19.5258 26.2539 16.0006 26.2539C12.669 26.2539 9.71071 24.659 7.84625 22.1914" stroke="#253C47" stroke-linecap="round" stroke-linejoin="round"/>
<path d="M7.22473 10.8118C9.00735 7.82624 12.2701 5.82687 16.0002 5.82687C19.7303 5.82687 22.9934 7.82683 24.7758 10.8124" stroke="#253C47" stroke-linecap="round" stroke-linejoin="round"/>
<path fill-rule="evenodd" clip-rule="evenodd" d="M31 17.8041V14.1959C31 13.8926 30.7542 13.6467 30.4506 13.6467H28.995C28.735 13.6467 28.5149 13.4629 28.4574 13.2091C28.1274 11.7503 27.5489 10.386 26.7673 9.16352C26.6288 8.94736 26.6656 8.66241 26.8471 8.48095L27.8822 7.44583C28.0969 7.23146 28.0969 6.88365 27.8822 6.66898L25.331 4.1178C25.1164 3.90313 24.7685 3.90313 24.5542 4.1178L23.5116 5.16004C23.3305 5.3415 23.0467 5.37856 22.83 5.24158C21.6089 4.46769 20.2474 3.8969 18.7927 3.57252C18.538 3.51589 18.3535 3.29528 18.3535 3.03436V1.54943C18.3535 1.24581 18.1074 1 17.8041 1H14.1959C13.8929 1 13.6467 1.24581 13.6467 1.54943V3.03436C13.6467 3.29528 13.4623 3.51589 13.2073 3.57252C11.7526 3.8969 10.3911 4.46769 9.17004 5.24158C8.95329 5.37856 8.66953 5.3415 8.48836 5.16004L7.44583 4.1178C7.23146 3.90313 6.88365 3.90313 6.66898 4.1178L4.1178 6.66898C3.90313 6.88365 3.90313 7.23146 4.1178 7.44583L5.15292 8.48095C5.33438 8.66241 5.37115 8.94736 5.23298 9.16352C4.45108 10.386 3.87259 11.7503 3.54257 13.2091C3.48505 13.4629 3.26504 13.6467 3.005 13.6467H1.54943C1.24581 13.6467 1 13.8926 1 14.1959V17.8041C1 18.1074 1.24581 18.3535 1.54943 18.3535H2.9884C3.25021 18.3535 3.47082 18.5389 3.52716 18.7942C3.84976 20.2616 4.42291 21.6347 5.20214 22.8652C5.34031 23.0835 5.30266 23.3693 5.12001 23.552L4.1178 24.5542C3.90313 24.7685 3.90313 25.1164 4.1178 25.331L6.66898 27.8822C6.88365 28.0969 7.23146 28.0969 7.44583 27.8822L8.44092 26.8874C8.62357 26.7045 8.91059 26.6674 9.12853 26.8065C10.3605 27.594 11.736 28.1749 13.2076 28.5031C13.4623 28.5597 13.6467 28.7803 13.6467 29.041V30.4506C13.6467 30.7542 13.8929 31 14.1959 31H17.8041C18.1074 31 18.3535 30.7542 18.3535 30.4506V29.041C18.3535 28.7803 18.538 28.5597 18.7924 28.5031C20.264 28.1749 21.6398 27.594 22.8715 26.8065C23.0894 26.6674 23.3764 26.7045 23.5591 26.8874L24.5542 27.8822C24.7685 28.0969 25.1164 28.0969 25.331 27.8822L27.8822 25.331C28.0969 25.1164 28.0969 24.7685 27.8822 24.5542L26.88 23.552C26.6973 23.3693 26.6597 23.0835 26.7979 22.8652C27.5771 21.6347 28.1505 20.2616 28.4731 18.7942C28.5292 18.5389 28.7498 18.3535 29.0116 18.3535H30.4506C30.7542 18.3535 31 18.1074 31 17.8041Z" stroke="#253C47" stroke-linecap="round" stroke-linejoin="round"/>
<path fill-rule="evenodd" clip-rule="evenodd" d="M6.76123 20.5003H9.50632V12.3193H6.76123V20.5003Z" stroke="#253C47" stroke-linecap="round" stroke-linejoin="round"/>
<path fill-rule="evenodd" clip-rule="evenodd" d="M23.0878 20.5003H25.8326V12.3193H23.0878V20.5003Z" stroke="#253C47" stroke-linecap="round" stroke-linejoin="round"/>
<path d="M14.7103 19.6351L16.0496 21.3477L15.6253 21.6798C15.0044 22.1652 14.1075 22.0555 13.6221 21.4346L11.4739 19.1031H9.55133" stroke="#253C47" stroke-linecap="round" stroke-linejoin="round"/>
<path d="M16.2587 18.4242L17.9129 20.5392L17.4883 20.871C16.8677 21.3567 15.9708 21.247 15.4854 20.6261L14.7103 19.6352" stroke="#253C47" stroke-linecap="round" stroke-linejoin="round"/>
<path d="M17.8069 17.2133L19.8994 19.889L19.4751 20.2208C18.8542 20.7064 17.9575 20.5967 17.4719 19.9758L16.2582 18.4242" stroke="#253C47" stroke-linecap="round" stroke-linejoin="round"/>
<path d="M17.9047 14.0808L21.0804 18.2079C21.4599 18.693 21.3742 19.3937 20.8888 19.7729L20.78 19.8583C20.4701 20.1006 20.0224 20.046 19.7799 19.7358L17.8072 17.2131" stroke="#253C47" stroke-linecap="round" stroke-linejoin="round"/>
<path d="M17.9046 14.0808L15.0326 15.7095C14.031 16.3411 13.2995 16.0407 12.6679 15.0388L15.9888 12.3605C16.3583 12.0628 16.8185 11.9003 17.2929 11.9003H19.7732C20.4142 11.9003 21.0191 12.1962 21.4126 12.702L23.0739 14.8375" stroke="#253C47" stroke-linecap="round" stroke-linejoin="round"/>
<path d="M21.3174 18.8685H23.0742" stroke="#253C47" stroke-linecap="round" stroke-linejoin="round"/>
<path d="M9.50592 13.4285H12.2632C12.2632 13.4285 13.794 11.9003 15.9888 12.3605" stroke="#253C47" stroke-linecap="round" stroke-linejoin="round"/>
</svg>
