<svg width="33" height="33" viewBox="0 0 33 33" fill="none" xmlns="http://www.w3.org/2000/svg">
<ellipse cx="17.4467" cy="14.7149" rx="10.708" ry="10.2962" transform="rotate(126 17.4467 14.7149)" fill="#FCCBCF"/>
<path fill-rule="evenodd" clip-rule="evenodd" d="M7.97678 19.268H13.2023V14.2374H7.97678V19.268Z" stroke="#253C47" stroke-linecap="round" stroke-linejoin="round"/>
<path fill-rule="evenodd" clip-rule="evenodd" d="M18.3784 20.7555L13.2022 19.387V14.1191L18.3784 12.7495V20.7555Z" stroke="#253C47" stroke-linecap="round" stroke-linejoin="round"/>
<path fill-rule="evenodd" clip-rule="evenodd" d="M18.3786 21.6335H20.3713V11.8714H18.3786V21.6335Z" stroke="#253C47" stroke-linecap="round" stroke-linejoin="round"/>
<path d="M11.2631 19.3374V22.398C11.2631 22.8934 10.8606 23.2955 10.3637 23.2955C9.86748 23.2955 9.46497 22.8934 9.46497 22.398V19.3374" stroke="#253C47" stroke-linecap="round" stroke-linejoin="round"/>
<path d="M9.14786 26.9144C5.80615 25.1366 3.53209 21.6241 3.53209 17.5815C3.53209 12.6073 6.95369 8.54253 11.5924 7.41772L11.501 9.15052L16.569 6.50956L11.7434 3.4498L11.67 5.18221C6.62456 5.9954 2.46864 9.75927 1.21636 14.7452C1.12767 15.0995 1.0581 15.4543 1 15.809" stroke="#253C47" stroke-linecap="round" stroke-linejoin="round"/>
<path d="M18.2481 7.84267C22.05 9.44692 24.7178 13.2035 24.7178 17.5815C24.7178 22.6895 21.1169 26.9454 16.2898 27.931L16.3891 26.2993L11.3208 28.9402L16.1468 32L16.2202 30.2672C21.2656 29.454 25.4212 25.6901 26.6735 20.7046C26.7625 20.3499 26.8321 19.9951 26.8898 19.6408" stroke="#253C47" stroke-linecap="round" stroke-linejoin="round"/>
</svg>
