<svg width="17" height="20" viewBox="0 0 17 20" fill="none" xmlns="http://www.w3.org/2000/svg">
<path d="M6.60016 17.8006C6.70178 18.1468 6.91278 18.4507 7.20158 18.6669C7.49039 18.8831 7.84145 19 8.20222 19C8.56299 19 8.91405 18.8831 9.20285 18.6669C9.49166 18.4507 9.70266 18.1468 9.80428 17.8006" stroke="#253C47" stroke-width="2" stroke-linecap="round" stroke-linejoin="round"/>
<path d="M8.2002 2.80007V1" stroke="#253C47" stroke-width="2" stroke-linecap="round" stroke-linejoin="round"/>
<path d="M8.20027 2.80005C9.79163 2.80005 11.3178 3.43221 12.4431 4.55747C13.5683 5.68274 14.2005 7.20892 14.2005 8.80028C14.2005 14.4373 15.4005 15.4005 15.4005 15.4005H1C1 15.4005 2.20005 13.8677 2.20005 8.80028C2.20005 7.20892 2.83221 5.68274 3.95747 4.55747C5.08273 3.43221 6.60891 2.80005 8.20027 2.80005V2.80005Z" stroke="#253C47" stroke-width="2" stroke-linecap="round" stroke-linejoin="round"/>
</svg>
