<svg width="15" height="15" viewBox="0 0 15 15" fill="none" xmlns="http://www.w3.org/2000/svg">
<path fill-rule="evenodd" clip-rule="evenodd" d="M9.08211 11.475L9.52585 11.2262L13.2458 14.9917L15 13.2209L11.2676 9.44291L11.504 9.01161C11.9851 8.11584 12.2422 7.12054 12.2422 6.13354C12.2422 2.74952 9.49682 0 6.12109 0C4.49129 0 2.95687 0.638651 1.79569 1.79983C0.638651 2.96102 0 4.49959 0 6.13354C0 9.51756 2.74537 12.2671 6.12109 12.2671C7.14542 12.2671 8.16975 11.9934 9.08211 11.475ZM2.10674 6.13353C2.10674 3.91484 3.90658 2.11086 6.12112 2.11086C8.33566 2.11086 10.1355 3.91484 10.1355 6.13353C10.1355 8.35222 8.33566 10.1562 6.12112 10.1562C3.90658 10.1562 2.10674 8.35222 2.10674 6.13353Z" fill="#C4C4C4"/>
</svg>
