<svg width="29" height="33" viewBox="0 0 29 33" fill="none" xmlns="http://www.w3.org/2000/svg">
<ellipse cx="11.9287" cy="15.8" rx="11.4" ry="10.4" transform="rotate(177 11.9287 15.8)" fill="#F8EB96"/>
<path d="M11.5504 25.3894H22.706" stroke="#253C47" stroke-linecap="round" stroke-linejoin="round"/>
<path d="M11.5504 27.62H22.706" stroke="#253C47" stroke-linecap="round" stroke-linejoin="round"/>
<path d="M11.5504 29.8515H22.706" stroke="#253C47" stroke-linecap="round" stroke-linejoin="round"/>
<path fill-rule="evenodd" clip-rule="evenodd" d="M27.7277 11.9997C27.7277 6.14532 22.9817 1.39972 17.1277 1.39972C11.2741 1.39972 6.52847 6.14532 6.52847 11.9997C6.52847 15.0997 7.86447 17.8889 9.98447 19.8273C10.0845 19.9101 10.1857 20.0005 10.2889 20.0905C11.9457 21.6013 12.9857 22.9721 12.9857 25.3893H21.2685C21.2685 22.9721 22.3053 21.6013 23.9705 20.0905C24.0709 20.0005 24.1701 19.9101 24.2693 19.8273C26.3893 17.8889 27.7277 15.0997 27.7277 11.9997Z" stroke="#253C47" stroke-linecap="round" stroke-linejoin="round"/>
<mask id="mask0" mask-type="alpha" maskUnits="userSpaceOnUse" x="6" y="1" width="23" height="32">
<path fill-rule="evenodd" clip-rule="evenodd" d="M6.12857 33H28.1282V1H6.12857V33Z" fill="white"/>
</mask>
<g mask="url(#mask0)">
<path fill-rule="evenodd" clip-rule="evenodd" d="M12.6653 16.4516H14.6681V11.8132H12.6653V16.4516Z" stroke="#253C47" stroke-linecap="round" stroke-linejoin="round"/>
<path fill-rule="evenodd" clip-rule="evenodd" d="M16.1269 16.4516H18.1297V10.0736H16.1269V16.4516Z" stroke="#253C47" stroke-linecap="round" stroke-linejoin="round"/>
<path fill-rule="evenodd" clip-rule="evenodd" d="M19.5883 16.4516H21.5911V7.58279H19.5883V16.4516Z" stroke="#253C47" stroke-linecap="round" stroke-linejoin="round"/>
<path fill-rule="evenodd" clip-rule="evenodd" d="M25.5985 11.9734C25.5985 16.6514 21.8065 20.4434 17.1281 20.4434C12.4505 20.4434 8.65771 16.6514 8.65771 11.9734C8.65771 7.29536 12.4505 3.50296 17.1281 3.50296C21.8065 3.50296 25.5985 7.29536 25.5985 11.9734Z" stroke="#253C47" stroke-linecap="round" stroke-linejoin="round"/>
<path d="M12.9856 25.3894V29.8514" stroke="#253C47" stroke-linecap="round" stroke-linejoin="round"/>
<path d="M21.2128 25.3894V29.8514" stroke="#253C47" stroke-linecap="round" stroke-linejoin="round"/>
<path d="M19.6644 30.0636C19.6644 31.4644 18.5288 32.6 17.128 32.6C15.7272 32.6 14.5916 31.4644 14.5916 30.0636" stroke="#253C47" stroke-linecap="round" stroke-linejoin="round"/>
</g>
</svg>
